<?xml version="1.0"?>
<svg xmlns:rdf="http://www.w3.org/1999/02/22-rdf-syntax-ns#" xmlns="http://www.w3.org/2000/svg" xmlns:cc="http://creativecommons.org/ns#" xmlns:dc="http://purl.org/dc/elements/1.1/" xmlns:svg="http://www.w3.org/2000/svg" id="svg2" viewBox="0 0 416.14 628.88" version="1.0">
  <g id="layer1" transform="translate(-63.579 -63.447)">
    <path id="path2396" d="m210.71 436.51c-33.57 1.05-47.13 2.7-80.71 3.71-0.74 45.37-2.16 90.82-7.42 135.89-1.81 28.09 33.13 57.62-0.7 77.48 2.98 26.74-31.454 48.45-54.317 34.24-17.716-17.73 31.196-40.12 1.028-56.61 0.726-22.26 6.27-44.38 6.061-67.19 3.52-32-0.049-64.04-4.914-95.61 1.36-26.38-15.234-59.69 12.056-77.95 23.996-14.56 50.376-24.34 77.436-31.34-14.09-7.08-60.286-9.69-46.11-42.27 15.47-33.63 26.63-69.34 41.77-103.22 6.53-31.73 42.51-44.65 71.6-41.29 28.18 6.82 15.36-24.32 5.96-35.15-5.56-27.45 7.06-58.609 33.91-69.449 24.92-15.011 51.04 12.092 48.53 37.389 8.25 29.87-28.71 48.78-22.86 75.11 22.58 12.77 71.53 12.01 69.33 46.66-5.65 34.72-11.41 70.2-3.65 105.08 5.06 21.74-16.02 33.44 3.28 54.77 14.3 15.81 19.05 41.16 30.58 61.81 3.87 28.64 8 56.8 19.99 83.49 5.7 23.99 7.12 48.75 20.51 70.3 1.21 29.16 23.5 49.8 46.85 64.23 7.44 26.14-38.67 15.93-55.87 16.68-20.38 0.74-59.83-3.5-40.1-33.64 4.02-17.7-22.72-19-16.92-39.3-7.11-32.5-11.97-60.65-23.72-91.89-0.02-30.69-15.15-68.65-36.36-91.45-3.95 5.71-44.06 2.92-48.95 7.41-7.87 7.24 20.92 17.82 23.98 21.04 21.1 22.2 7.11 75.8 19.18 102.65 14.81 25.88 25.25 58.76 3.36 84.66-18.28 31.27-51.65 42.6-86.17 35.81-31.26-8.89-62.95-36.77-59.6-72.19 4.36-32.15 31.54-61.29 13.68-94.72-7.92-31.45 11.89-58.11 39.07-64.57 6.18-2.11 1.27-3.62 0.21-10.57z"/>
  </g>
  <metadata>
    <rdf:RDF>
      <cc:Work>
        <dc:format>image/svg+xml</dc:format>
        <dc:type rdf:resource="http://purl.org/dc/dcmitype/StillImage"/>
        <cc:license rdf:resource="http://creativecommons.org/licenses/publicdomain/"/>
        <dc:publisher>
          <cc:Agent rdf:about="http://openclipart.org/">
            <dc:title>Openclipart</dc:title>
          </cc:Agent>
        </dc:publisher>
        <dc:title>Silhouette of man and guitar</dc:title>
        <dc:date>2010-05-26T02:43:37</dc:date>
        <dc:description>Silhouette of a man sitting with guitar. Silhueta de um homem com um viol&#xE3;o.</dc:description>
        <dc:source>http://openclipart.org/detail/62953/silhouette-of-man-and-guitar-by-laobc</dc:source>
        <dc:creator>
          <cc:Agent>
            <dc:title>laobc</dc:title>
          </cc:Agent>
        </dc:creator>
        <dc:subject>
          <rdf:Bag>
            <rdf:li>clip art</rdf:li>
            <rdf:li>clipart</rdf:li>
            <rdf:li>guitar</rdf:li>
            <rdf:li>male</rdf:li>
            <rdf:li>man</rdf:li>
            <rdf:li>music</rdf:li>
            <rdf:li>silhouette</rdf:li>
          </rdf:Bag>
        </dc:subject>
      </cc:Work>
      <cc:License rdf:about="http://creativecommons.org/licenses/publicdomain/">
        <cc:permits rdf:resource="http://creativecommons.org/ns#Reproduction"/>
        <cc:permits rdf:resource="http://creativecommons.org/ns#Distribution"/>
        <cc:permits rdf:resource="http://creativecommons.org/ns#DerivativeWorks"/>
      </cc:License>
    </rdf:RDF>
  </metadata>
</svg>
