<?xml version="1.0" standalone="no"?>
<!DOCTYPE svg PUBLIC "-//W3C//DTD SVG 20010904//EN"
 "http://www.w3.org/TR/2001/REC-SVG-20010904/DTD/svg10.dtd">
<svg version="1.0" xmlns="http://www.w3.org/2000/svg"
 width="1280.000000pt" height="640.000000pt" viewBox="0 0 1280.000000 640.000000"
 preserveAspectRatio="xMidYMid meet">
<metadata>
Created by potrace 1.15, written by Peter Selinger 2001-2017
</metadata>
<g transform="translate(0.000000,640.000000) scale(0.100000,-0.100000)"
fill="#000000" stroke="none">
<path d="M2730 5783 c-49 -8 -154 -45 -214 -75 -242 -122 -486 -420 -640 -780
-370 -868 -348 -2068 54 -2893 174 -358 431 -620 695 -711 107 -36 280 -45
388 -19 158 38 293 119 437 264 318 318 530 832 616 1491 22 168 30 627 15
802 -60 671 -260 1229 -568 1583 -202 232 -423 347 -662 344 -53 -1 -107 -4
-121 -6z m120 -1268 l0 -965 -527 0 -526 0 6 168 c24 592 171 1053 445 1393
107 133 241 248 360 308 49 25 172 60 215 60 l27 1 0 -965z"/>
<path d="M10201 5770 c-423 -114 -777 -599 -955 -1307 -78 -314 -101 -522
-101 -928 0 -426 22 -613 115 -973 158 -608 474 -1067 842 -1220 104 -43 179
-55 310 -50 202 9 355 80 534 251 169 161 298 352 402 597 292 685 350 1562
156 2335 -169 669 -502 1140 -907 1282 -102 36 -289 42 -396 13z m179 -1255
l0 -965 -531 0 -531 0 6 138 c26 530 122 909 309 1225 138 232 346 439 522
517 53 23 152 48 198 49 l27 1 0 -965z"/>
<path d="M315 2988 c-187 -67 -315 -360 -315 -723 0 -349 117 -630 296 -712
109 -50 241 -18 329 79 80 89 150 258 174 425 16 103 13 333 -4 438 -39 242
-159 444 -289 488 -55 19 -145 21 -191 5z m160 -257 c82 -38 150 -147 180
-287 19 -88 19 -269 0 -358 -21 -98 -70 -199 -121 -245 -195 -180 -410 75
-391 464 11 217 82 377 192 426 51 23 90 23 140 0z"/>
<path d="M12290 2983 c-127 -46 -247 -250 -285 -488 -17 -105 -20 -335 -4
-438 24 -167 94 -336 174 -425 88 -97 220 -129 329 -79 179 82 296 363 296
712 0 338 -117 630 -285 710 -54 26 -165 30 -225 8z m175 -252 c110 -49 181
-209 192 -426 19 -389 -196 -644 -391 -464 -86 78 -136 235 -136 424 0 232 75
410 195 466 50 23 89 23 140 0z"/>
<path d="M5170 1471 l0 -179 73 -65 c194 -172 417 -324 627 -426 533 -261
1020 -250 1559 35 179 94 417 263 574 406 l58 53 -3 178 -3 178 -80 -63 c-312
-245 -669 -424 -977 -488 -242 -50 -522 -53 -742 -6 -321 69 -626 214 -936
445 -63 47 -123 92 -132 99 -17 12 -18 3 -18 -167z"/>
</g>
</svg>
