<?xml version="1.0" standalone="no"?>
<!DOCTYPE svg PUBLIC "-//W3C//DTD SVG 20010904//EN"
 "http://www.w3.org/TR/2001/REC-SVG-20010904/DTD/svg10.dtd">
<svg version="1.0" xmlns="http://www.w3.org/2000/svg"
 width="1280.000000pt" height="1222.000000pt" viewBox="0 0 1280.000000 1222.000000"
 preserveAspectRatio="xMidYMid meet">
<metadata>
Created by potrace 1.15, written by Peter Selinger 2001-2017
</metadata>
<g transform="translate(0.000000,1222.000000) scale(0.100000,-0.100000)"
fill="#000000" stroke="none">
<path d="M6011 11839 c-282 -33 -570 -191 -670 -368 -60 -106 -311 -951 -557
-1871 -54 -201 -278 -1083 -499 -1960 l-400 -1595 -65 3 c-61 3 -130 9 -500
47 -693 72 -1482 213 -1978 355 -300 86 -595 197 -789 296 l-123 63 -41 -57
c-46 -65 -46 -64 -8 -262 130 -675 462 -1379 890 -1890 353 -420 783 -734
1294 -945 341 -140 843 -259 1325 -315 52 -6 131 -15 175 -20 238 -28 491 -46
1000 -70 373 -18 435 -22 435 -30 0 -4 -7 -27 -15 -51 -9 -24 -17 -71 -18
-104 -4 -142 23 -170 133 -136 166 50 297 53 409 7 34 -13 120 -64 192 -113
l132 -88 117 -3 117 -4 106 47 c200 86 323 103 472 62 128 -34 156 -37 219
-21 112 29 140 66 140 184 -1 71 -9 102 -60 217 -4 8 19 13 73 18 158 12 401
36 528 51 806 93 1552 346 2205 747 608 374 1171 892 1556 1434 311 437 500
865 574 1298 29 172 29 177 -26 219 -27 21 -52 33 -62 29 -9 -3 -100 -47 -202
-98 -550 -273 -1285 -479 -2338 -655 -316 -52 -832 -125 -837 -118 0 2 -84
253 -184 558 -496 1501 -791 2363 -1163 3395 -55 154 -179 519 -252 745 -58
177 -162 395 -247 513 -257 361 -637 535 -1058 486z"/>
<path d="M5785 2653 c-54 -6 -169 -35 -219 -55 -60 -23 -193 -115 -368 -255
-282 -225 -486 -330 -684 -351 -85 -9 -186 -3 -229 14 -52 20 -110 73 -193
176 -49 62 -104 124 -122 137 -103 75 -274 45 -345 -61 -59 -89 -69 -270 -26
-499 73 -389 188 -630 401 -839 184 -181 370 -275 682 -344 391 -88 848 -45
1153 106 181 91 393 272 493 423 l30 46 63 -93 c80 -118 255 -294 379 -382
255 -180 527 -266 840 -266 237 0 439 40 707 141 280 105 520 245 743 435 105
89 143 129 212 224 120 164 189 328 233 550 27 142 31 221 14 302 -29 135
-152 217 -276 184 -94 -25 -136 -67 -222 -219 -33 -60 -79 -130 -101 -157
-104 -124 -265 -174 -487 -149 -116 12 -213 44 -344 110 -126 65 -233 144
-410 305 -287 261 -400 350 -505 395 -27 11 -95 31 -152 44 -88 20 -112 22
-179 14 -42 -6 -104 -19 -137 -30 -76 -26 -243 -135 -291 -192 l-36 -42 -25
30 c-59 70 -109 117 -182 168 -106 74 -142 91 -248 116 -89 20 -107 22 -169
14z"/>
</g>
</svg>
