<?xml version="1.0" encoding="UTF-8" standalone="no"?>
<!-- Created with Inkscape (http://www.inkscape.org/) -->

<svg
   xmlns:dc="http://purl.org/dc/elements/1.1/"
   xmlns:cc="http://creativecommons.org/ns#"
   xmlns:rdf="http://www.w3.org/1999/02/22-rdf-syntax-ns#"
   xmlns:svg="http://www.w3.org/2000/svg"
   xmlns="http://www.w3.org/2000/svg"
   xmlns:sodipodi="http://sodipodi.sourceforge.net/DTD/sodipodi-0.dtd"
   xmlns:inkscape="http://www.inkscape.org/namespaces/inkscape"
   width="233.83188mm"
   height="332.31033mm"
   viewBox="0 0 828.53816 1177.4776"
   id="svg4493"
   version="1.1"
   inkscape:version="0.91 r13725"
   sodipodi:docname="DancingCouple2.svg">
  <defs
     id="defs4495" />
  <sodipodi:namedview
     id="base"
     pagecolor="#ffffff"
     bordercolor="#666666"
     borderopacity="1.0"
     inkscape:pageopacity="0.0"
     inkscape:pageshadow="2"
     inkscape:zoom="0.56901297"
     inkscape:cx="414.26908"
     inkscape:cy="588.73878"
     inkscape:document-units="px"
     inkscape:current-layer="layer1"
     showgrid="false"
     fit-margin-top="0"
     fit-margin-left="0"
     fit-margin-right="0"
     fit-margin-bottom="0"
     inkscape:window-width="1600"
     inkscape:window-height="837"
     inkscape:window-x="-8"
     inkscape:window-y="-8"
     inkscape:window-maximized="1" />
  <metadata
     id="metadata4498">
    <rdf:RDF>
      <cc:Work
         rdf:about="">
        <dc:format>image/svg+xml</dc:format>
        <dc:type
           rdf:resource="http://purl.org/dc/dcmitype/StillImage" />
        <dc:title></dc:title>
      </cc:Work>
    </rdf:RDF>
  </metadata>
  <g
     inkscape:label="Layer 1"
     inkscape:groupmode="layer"
     id="layer1"
     transform="translate(2783.4761,1258.8465)">
    <path
       inkscape:connector-curvature="0"
       style="fill:#000000"
       d="m -2375.0245,-1258.8465 c -4.7095,0 -8.9135,0.1573 -12.1973,0.5117 -18.0465,1.9479 -29.1477,6.8481 -32.5644,14.375 -2.3986,5.2838 -2.2999,7.8195 0.5078,13.0938 2.7968,5.2538 2.9835,7.447 1.0546,12.4414 -0.7965,2.0625 -1.4672,5.6484 -1.4882,7.9688 -0.022,2.3203 -0.5282,9.7409 -1.125,16.4902 l -1.086,12.2715 3.0957,5.6308 3.0957,5.6309 -4.9121,11.1601 c -9.6619,21.9531 -9.7331,22.6492 -2.7246,26.3946 7.8477,4.1939 8.3653,4.9615 7.6934,11.3887 -0.5367,5.1355 -0.3934,5.7433 1.8887,8.0253 1.5392,1.5393 2.4687,3.4984 2.4687,5.2051 0,1.6551 1.0494,3.9545 2.6543,5.8164 3.6233,4.2037 4.0522,5.7942 2.8144,10.4219 -3.0341,11.3444 5.406,19.2628 15.1563,14.2207 7.7968,-4.0319 20.0231,-5.0066 21.293,-1.6973 0.2951,0.7689 -0.1036,2.7325 -0.8848,4.3614 -1.9473,4.0603 -16.3465,19.1669 -25.7715,27.039 -4.2692,3.5659 -8.4489,7.813 -9.289,9.4375 -0.9214,1.7819 -1.8199,6.877 -2.2637,12.8438 -0.8497,11.4247 -1.4036,14.1164 -3.9668,19.2656 -3.2772,6.58345 -7.1691,10.61524 -15.5117,16.07031 -21.7433,14.21742 -26.4939,17.5416 -33.4492,23.4043 -4.125,3.477 -9.3985,7.53042 -11.7188,9.00781 l -4.2188,2.68555 -1.5722,-1.92969 c -2.7451,-3.37322 -4.387,-10.27074 -7.3379,-30.81445 -3.8606,-26.87593 -6.6887,-32.58693 -18.7676,-37.89063 -8.8737,-3.8962 -10.1682,-6.7021 -6.4531,-13.9844 1.9149,-3.7535 9.8273,-12.955 11.1406,-12.955 0.3628,0 4.2068,2.1391 8.543,4.7539 9.3244,5.6226 15.8971,7.3423 21.5703,5.6425 6.0507,-1.8128 7.4082,-3.8008 7.4082,-10.8418 0,-5.7294 0.1496,-6.1466 2.6797,-7.455 3.2258,-1.6681 5.163,-5.8792 4.2949,-9.3379 -0.4408,-1.7562 -0.1499,-3.0601 0.957,-4.2832 1.1785,-1.3023 1.5119,-3.0453 1.2832,-6.709 -0.3066,-4.9106 -0.2796,-4.9653 3.4415,-7.0391 2.0625,-1.1494 4.2773,-2.56 4.9218,-3.1347 1.9733,-1.7597 1.3209,-6.0075 -2.0371,-13.2754 -4.6884,-10.1475 -4.9853,-11.8536 -2.2422,-12.8965 2.4955,-0.9488 4.8,-3.3665 5.0899,-5.3418 0.1543,-1.0516 -0.3335,-1.0209 -2.625,0.164 -1.5475,0.8003 -3.0172,1.2505 -3.2657,1.002 -0.2485,-0.2485 0.7407,-2.2516 2.1973,-4.4512 2.9472,-4.4504 3.1846,-8.1041 1.8223,-28.0468 -0.9605,-14.0628 -1.2496,-15.3423 -4.3535,-19.2481 -1.5338,-1.9299 -2.7891,-4.4361 -2.7891,-5.5684 0,-5.1141 -10.3604,-11.8186 -30.9375,-20.0214 -15.8544,-6.3203 -18.7358,-7.013 -29.0625,-6.9883 -11.2435,0.027 -16.7064,1.33 -22.8125,5.4453 -2.6637,1.7952 -8.2136,5.5406 -12.332,8.3223 l -7.4864,5.0566 -2.7246,-1.9395 c -8.9683,-6.3859 -22.5794,-8.2524 -30.6172,-4.1992 -3.8204,1.9266 -4.4448,2.7595 -7.1992,9.6094 -4.0557,10.0862 -5.1984,16.1016 -4.8105,25.3379 l 0.3261,7.7559 7.3086,10.6406 c 4.0201,5.8523 9.4331,13.1719 12.0274,16.2656 13.5487,16.1572 12.3883,25.1794 -7.4707,58.125 -5.264,8.7327 -8.6645,12.8258 -22.1992,26.7188 -17.9624,18.4379 -22.8803,24.3067 -26.668,31.8261 -5.0443,10.01477 -5.0798,10.62112 -5.1348,88.17385 -0.053,74.88577 0.1381,79.51013 4.25,102.65625 4.1934,23.60494 3.2787,39.38339 -3.3965,58.56055 -3.6706,10.54541 -5.5508,13.59783 -20.5195,33.31445 -18.749,24.69578 -25.4318,43.38275 -26.4844,74.0625 -0.5745,16.75088 0.3954,32.08373 4.9004,77.50781 2.6423,26.64244 2.4173,30.30243 -3.0117,49.00977 -3.0933,10.65915 -3.3232,12.42799 -4.0801,31.45117 -0.7739,19.4457 -2.0706,29.04916 -6.08,45 -0.7128,2.83594 -2.5746,13.38281 -4.1368,23.4375 -3.0613,19.70436 -4.7299,26.14912 -12.0156,46.40625 -5.8852,16.36282 -8.3764,27.20563 -9.1523,39.84375 -1.0767,17.53416 -2.9258,21.50179 -23.2735,49.96289 -16.4937,23.07041 -17.1493,24.09091 -19.8965,30.95306 -1.3655,3.4111 -4.1311,8.0758 -6.1464,10.3653 -3.8747,4.4017 -4.3288,6.0363 -2.586,9.2929 0.958,1.79 0.6071,2.4314 -3.1601,5.7969 -7.6932,6.8729 -8.1127,10.4908 -2.6543,22.8945 4.2771,9.7195 8.8896,24.2638 10.3476,32.627 1.3601,7.8023 1.3178,22.2748 -0.09,30.6523 -1.3882,8.2613 -0.8647,10.1913 2.6543,9.7832 l 2.5625,-0.2968 0.1152,-13.5938 c 0.063,-7.4766 0.6258,-16.5469 1.2481,-20.1562 1.2726,-7.3824 5.1895,-16.0231 8.1425,-17.9629 1.7269,-1.1345 2.2625,-1.0509 4.4825,0.6953 4.1318,3.2501 7.2309,10.5245 15.1425,35.5488 3.9704,12.558 6.8495,16.2865 15.9122,20.6094 9.8115,4.6801 29.8863,8.7729 46.875,9.5566 l 6.5624,0.3028 0.293,-3.045 c 0.4757,-4.9325 -3.9062,-11.8257 -10.541,-16.5781 -6.4721,-4.6358 -16.8523,-15.1233 -20.4766,-20.6895 -2.8412,-4.3636 -4.5428,-14.5808 -4.7617,-28.5937 -0.1225,-7.8404 0.1236,-9.3275 2.0489,-12.4238 2.7215,-4.3773 6.356,-5.5718 8.5839,-2.8203 0.8524,1.0525 2.2746,5.2117 3.1602,9.2421 1.9258,8.7645 4.6071,12.6506 10.9394,15.8594 8.9276,4.524 25.3217,2.4996 39.8008,-4.916 5.1686,-2.6471 8.9883,-5.8161 17.8281,-14.791 6.1875,-6.282 12.5786,-12.3297 14.2032,-13.4395 1.6247,-1.1099 7.4166,-3.8887 12.8711,-6.1738 5.4544,-2.2853 14.04,-6.5798 19.0781,-9.5449 5.0383,-2.9652 12.6009,-6.9827 16.8066,-8.9258 13.6604,-6.3113 15.2282,-8.6026 20.8262,-30.45893 3.9714,-15.50503 15.8928,-50.04492 17.2734,-50.04492 0.1893,0 -0.2084,4.53517 -0.8847,10.07812 -0.6762,5.54297 -1.8713,17.25001 -2.6543,26.01563 -4.7904,53.6289 -5.1631,56.2905 -10.0274,71.5624 -2.0896,6.5606 -4.3283,11.0191 -8.9472,17.8126 -3.3885,4.9837 -6.9341,10.75 -7.8789,12.8124 -2.2818,4.981 -2.2008,11.0241 0.2422,17.8458 3.0612,8.5483 2.6474,17.0258 -1.5333,31.3203 -4.2978,14.6953 -4.9861,19.8106 -2.8964,21.5449 0.8445,0.7008 1.7,1.1086 1.9004,0.9062 0.2003,-0.2024 3.1848,-10.4922 6.6328,-22.8672 3.4478,-12.3749 6.7543,-23.6869 7.3476,-25.1367 1.0482,-2.5618 1.3592,-2.1263 11.0899,15.4688 8.2094,14.8442 10.4423,19.7488 12.3965,27.2324 2.886,11.052 5.0262,15.442303 9.3964,19.279303 5.6894,4.9954 19.9494,8.3296 48.3516,11.3066 l 0,0 c 8.5078,0.8918 15.6256,1.5168 15.8164,1.3887 0.1908,-0.128 0.05,-1.8141 -0.3125,-3.7461 -0.5487,-2.9246 -2.9023,-5.7174 -14.0508,-16.683603 -13.8153,-13.5892 -18.992,-20.7666 -20.9961,-29.1094 -0.4954,-2.0624 -2.2285,-8.6015 -3.8516,-14.5312 -2.7679,-10.1127 -3.0381,-12.5542 -4.3633,-39.375 -0.7767,-15.7266 -1.1624,-31.6343 -0.8554,-35.3496 0.7628,-9.2302 2.9915,-17.3877 12.3652,-45.27535 12.0149,-35.74528 20.1354,-56.79428 27.2324,-70.58398 8.0912,-15.72114 24.9285,-45.66531 25.6778,-45.66602 0.3131,-2.9e-4 0.8614,4.32422 1.2187,9.60938 1.6705,24.70659 6.7122,55.6661 11.1035,68.19335 3.9508,11.27034 13.1658,29.24137 25.9258,50.55852 6.0439,10.097 15.7284,26.584 21.5215,36.6387 5.7931,10.0547 13.0358,21.6562 16.0957,25.7812 11.5622,15.5871 13.1513,18.8873 11.7617,24.4239 -1.6333,6.5073 -13.5837,14.6733 -32.8828,22.4687 -15.0719,6.0881 -23.735,17.4247 -18.752,24.5391 0.7726,1.1031 3.4093,2.7793 5.8594,3.7246 3.8121,1.4709 7.1595,1.7084 23.2051,1.6504 19.1103,-0.069 37.144,-2.0526 62.8125,-6.9121 5.1562,-0.9762 10.8516,-1.8884 12.6563,-2.0254 2.5181,-0.1911 4.5061,-1.4268 8.5488,-5.3145 5.1475,-4.9502 5.2814,-5.0138 5.8476,-2.7578 0.7844,3.125 5.0281,4.7797 10.1582,3.959 3.433,-0.5492 25.9932,-5.9531 37.5547,-8.9961 l 3.5157,-0.9258 -0.01,-12.3847 c -0.011,-17.0613 -1.5898,-37.6068 -3.3652,-43.793 -2.5979,-9.0518 -6.8337,-15.5489 -17.6446,-27.0664 -15.7594,-16.7894 -23.9364,-30.3146 -28.6933,-47.4648 -3.3029,-11.90813 -8.3501,-25.88419 -11.0039,-30.46875 -1.3431,-2.32031 -4.6682,-7.23137 -7.3887,-10.91406 -8.9534,-12.12018 -11.2982,-17.45315 -16.2793,-37.02149 -2.5312,-9.94404 -4.4906,-18.19112 -4.3555,-18.32617 0.135,-0.13504 3.6941,2.06404 7.9102,4.88672 12.3766,8.28618 26.3007,16.71694 45.5918,27.60352 23.4658,13.2426 34.2814,19.80594 41.8633,25.40234 6.6843,4.93388 14.6908,8.63084 33.3164,15.38281 18.9713,6.87731 34.1565,13.22363 52.9296,22.125 9.5724,4.53883 22.6505,9.93323 29.0625,11.98628 51.2209,16.4008 75.913,25.1539 78.8555,27.9551 3.3659,3.2044 14.9745,27.1302 18.4297,37.9844 1.5261,4.7943 3.529,13.0687 4.4512,18.3886 1.4708,8.4852 2.0093,9.9528 4.3867,11.9532 2.3362,1.9659 3.666,2.2812 9.6445,2.2812 6.6602,0 6.9911,-0.1041 8.3047,-2.6445 3.2625,-6.3089 4.2995,-17.0426 5.2305,-54.0743 0.9446,-37.5668 3.0062,-75.14699 4.5762,-83.4374 0.4883,-2.57813 1.1866,-8.37725 1.5527,-12.88672 0.8515,-10.48641 -0.021,-12.07085 -7.5762,-13.76172 -5.7501,-1.28681 -7.5257,-2.68116 -12.3047,-9.65429 -1.6404,-2.39363 -3.9607,-4.98927 -5.1562,-5.76954 -1.1955,-0.78027 -8.9238,-3.34754 -17.1738,-5.70507 -11.5248,-3.29331 -17.9697,-5.79461 -27.8184,-10.79688 -7.0503,-3.58091 -24.9375,-11.83999 -39.7481,-18.35351 -14.8106,-6.5135 -31.3999,-14.4739 -36.8671,-17.68946 -14.982,-8.81154 -16.8696,-9.77511 -38.5801,-19.71094 -25.5687,-11.70145 -71.2851,-34.18001 -76.9199,-37.82031 -4.0186,-2.59623 -4.388,-3.17708 -5.459,-8.62109 -1.3928,-7.07917 -1.4554,-20.22741 -0.1289,-27.05078 0.5355,-2.75439 2.029,-9.71533 3.3183,-15.46875 1.2891,-5.75342 3.9901,-19.83265 6.002,-31.28711 2.2317,-12.70585 4.4349,-22.43069 5.6504,-24.94141 1.543,-3.18764 4.5048,-6.0418 13.1406,-12.66015 9.528,-7.30211 11.5128,-9.28897 13.6523,-13.66211 2.8137,-5.75106 2.8447,-7.91928 0.4453,-31.19922 -1.3121,-12.73277 -1.1679,-16.77897 2.043,-57.46875 1.2666,-16.05261 0.7326,-20.54316 -4.8047,-40.33594 -2.0916,-7.47656 -4.8338,-20.41543 -6.0937,-28.75195 -1.26,-8.33652 -3.2077,-17.82871 -4.3281,-21.09375 -1.3684,-3.98769 -2.2884,-9.78246 -2.8028,-17.6543 -0.4212,-6.44531 -1.0392,-14.67188 -1.373,-18.28125 -0.9111,-9.84934 -0.1823,-10.98212 10.2558,-15.95898 11.5581,-5.51081 16.4442,-10.74672 23.7657,-25.46094 l 5.3652,-10.78321 0.334,-12.80468 c 0.2595,-9.97837 -0.1078,-15.35774 -1.6602,-24.36914 -1.0957,-6.36015 -2.4174,-17.53984 -2.9375,-24.84375 -3.5374,-49.68056 -10.3231,-84.08959 -20.9472,-106.2227 -9.0974,-18.9525 -14.9232,-25.6453 -34.4942,-39.6152 -5.8143,-4.1502 -13.5254,-9.886 -17.1347,-12.748 -10.9342,-8.6702 -20.7513,-21.5784 -24.0469,-31.6172 -2.4806,-7.5565 -3.5623,-8.9928 -8.9649,-11.9063 -3.0432,-1.641 -5.0382,-3.5442 -6.1953,-5.9121 -1.6114,-3.2973 -1.6228,-3.9033 -0.2148,-10.8066 4.9261,-24.1522 5.5188,-44.6784 1.8652,-64.5332 -1.9689,-10.6996 -3.063,-14.2777 -6.0918,-19.9102 -11.592,-21.5618 -27.5413,-33.4632 -51.0367,-38.0898 -11.9986,-2.3628 -30.6725,-3.8867 -44.8007,-3.9024 z m -29.0821,405.99807 c 0.1561,0.011 0.2685,0.0361 0.3301,0.0742 1.3353,0.82527 1.0731,9.85293 -0.6367,22.00586 -1.2711,9.03474 -1.5297,21.26029 -1.5977,75.46875 -0.049,39.37588 0.374,73.85838 1.0801,88.125 1.9539,39.4778 1.8001,58.87671 -0.582,73.92187 -2.8339,17.89792 -2.8781,17.41726 1.6016,16.81641 3.1445,-0.42177 3.8695,-0.16472 5.1855,1.84375 1.4158,2.1602 1.4153,2.67779 -0.01,6.9082 -0.8473,2.51498 -4.8056,11.11133 -8.7949,19.10352 -5.7571,11.53387 -8.085,17.52863 -11.2891,29.0625 -2.2203,7.99219 -4.2296,15.90537 -4.4648,17.58594 -0.2352,1.68056 -0.7492,3.25423 -1.1406,3.49609 -0.3914,0.24188 -2.6165,-1.97601 -4.9453,-4.92969 -2.3288,-2.95369 -8.7457,-10.22265 -14.2598,-16.15234 -20.8304,-22.40062 -47.7369,-55.00061 -50.791,-61.53711 -1.4432,-3.08879 -2.793,-8.80926 -3.7578,-15.9375 -1.095,-8.08951 -2.5989,-14.07228 -5.5215,-21.95898 -4.0075,-10.81462 -6.8001,-24.26014 -8.8477,-42.59766 -0.5183,-4.64063 -0.9375,-22.78125 -0.9375,-40.3125 0.01,-45.4576 2.116,-65.94573 8.9825,-87.1875 7.6098,-23.54143 15.7112,-35.05469 33.6542,-47.82813 11.8822,-8.45881 13.6674,-9.15577 24.375,-9.53124 10.5767,-0.37089 23.6592,-2.28784 34.4883,-5.05274 3.5188,-0.89844 6.7864,-1.4639 7.8789,-1.38672 z"
       id="path4339" />
  </g>
</svg>
